<?xml version="1.0" encoding="UTF-8" standalone="no"?>
<!-- Created with Inkscape (http://www.inkscape.org/) -->

<svg
   xmlns:dc="http://purl.org/dc/elements/1.1/"
   xmlns:cc="http://creativecommons.org/ns#"
   xmlns:rdf="http://www.w3.org/1999/02/22-rdf-syntax-ns#"
   xmlns:svg="http://www.w3.org/2000/svg"
   xmlns="http://www.w3.org/2000/svg"
   xmlns:sodipodi="http://sodipodi.sourceforge.net/DTD/sodipodi-0.dtd"
   xmlns:inkscape="http://www.inkscape.org/namespaces/inkscape"
   width="30mm"
   height="20.264999mm"
   viewBox="0 0 30 20.264999"
   version="1.1"
   id="svg6606"
   inkscape:version="0.92.5 (2060ec1f9f, 2020-04-08)"
   sodipodi:docname="wedl.svg">
  <defs
     id="defs6600" />
  <sodipodi:namedview
     id="base"
     pagecolor="#ffffff"
     bordercolor="#666666"
     borderopacity="1.0"
     inkscape:pageopacity="0.0"
     inkscape:pageshadow="2"
     inkscape:zoom="0.49497475"
     inkscape:cx="198.65958"
     inkscape:cy="768.02728"
     inkscape:document-units="mm"
     inkscape:current-layer="layer1"
     showgrid="false"
     inkscape:window-width="1920"
     inkscape:window-height="1016"
     inkscape:window-x="1366"
     inkscape:window-y="27"
     inkscape:window-maximized="1" />
  <metadata
     id="metadata6603">
    <rdf:RDF>
      <cc:Work
         rdf:about="">
        <dc:format>image/svg+xml</dc:format>
        <dc:type
           rdf:resource="http://purl.org/dc/dcmitype/StillImage" />
        <dc:title></dc:title>
      </cc:Work>
    </rdf:RDF>
  </metadata>
  <g
     inkscape:label="Layer 1"
     inkscape:groupmode="layer"
     id="layer1"
     transform="translate(0,-276.735)">
    <path
       style="opacity:1;fill:#fc0d15;fill-opacity:1;stroke:#0000f6;stroke-width:0.00650052;stroke-miterlimit:4;stroke-dasharray:none;stroke-dashoffset:39.22031021;stroke-opacity:1"
       d="m 17.039959,276.73895 c -0.04211,-3.3e-4 -0.08334,0.002 -0.125262,0.002 0.0748,6.4e-4 0.153757,6.4e-4 0.226536,9.8e-4 -0.03368,-9.8e-4 -0.06761,-0.004 -0.101299,-0.004 z m 1.583906,0.249 c -0.0209,0.13236 -0.0583,0.34579 -0.10699,0.61372 0.19033,0.0703 0.3621,0.15279 0.50168,0.24873 0.62431,0.42907 0.78685,0.56961 1.13523,0.98344 0.50758,0.60292 0.75207,1.05948 0.93962,1.75695 0.22255,0.82778 0.26504,0.89657 0.46919,0.75452 0.10935,-0.076 0.48393,-0.11381 1.09263,-0.11046 0.95012,0.005 1.30828,0.1091 1.96538,0.56882 0.49607,0.34711 1.23057,1.45521 1.31384,1.98309 0.0153,0.096 0.0747,0.29113 0.13284,0.43358 0.0929,0.22755 0.15219,0.25933 0.48495,0.25933 0.67994,0 1.58403,0.59803 2.04488,1.35235 0.34667,0.56746 0.47169,0.98167 0.5121,1.69838 0.007,0.14154 0.0129,0.25787 0.0132,0.36222 0.001,0.31304 -0.0379,0.51757 -0.15523,0.96673 -0.21071,0.80723 -0.44425,1.25561 -0.96518,1.85259 -0.38389,0.43992 -1.095,0.93776 -1.51008,1.05761 -0.49153,0.1419 -0.62441,0.26063 -0.88819,0.78995 -0.49338,0.99002 -1.22759,1.69643 -2.27395,2.18887 -0.43123,0.20293 -0.60595,0.23077 -1.45266,0.23143 -0.78039,3.2e-4 -1.00198,-0.03 -1.17153,-0.16284 -0.11504,-0.09 -0.23719,-0.16367 -0.27166,-0.16367 -0.0344,0 -0.31116,0.22237 -0.61463,0.49436 -1.10785,0.99283 -1.619172,1.20649 -2.990503,1.24946 -0.550979,0.0175 -1.079371,0.0111 -1.174367,-0.0154 v -2.7e-4 c -0.762222,-0.20539 -1.448469,-0.67657 -1.993777,-1.36825 -0.282152,-0.35789 -0.299972,-0.3656 -0.512404,-0.23116 -0.345322,0.21861 -1.449856,0.53008 -1.870719,0.52755 -0.373953,-0.002 -0.504862,-0.0348 -1.206243,-0.30058 -0.371303,-0.14073 -1.224075,-0.78611 -1.209066,-0.91513 0.01585,-0.13624 -0.327985,-0.17324 -0.474225,-0.051 -0.202759,0.16942 -1.160237,0.51586 -1.426154,0.51586 -0.410039,0 -1.285523,-0.28982 -1.620195,-0.53622 -0.622595,-0.45838 -0.914332,-0.92423 -1.170268,-1.86625 -0.07071,-0.26017 -0.116036,-0.2878 -0.567933,-0.35273 -0.891335,-0.12806 -1.690845,-0.67495 -2.206753,-1.50933 -0.214401,-0.34668 -0.331477,-0.68702 -0.50671996,-1.47254 -0.02774,-0.12442 -0.005,-0.61161 0.04892,-1.08299 0.09114,-0.7837 0.12736696,-0.91364 0.41995896,-1.5166 0.783027,-1.61382 2.201342,-2.58726 3.773934,-2.58982 l 0.436999,-6.5e-4 0.347068,-0.49523 c 0.355229,-0.5074 0.74808,-0.94366 1.188571,-1.31834 0.292084,-0.24846 0.904995,-0.62812 1.020387,-0.63239 0.04421,-10e-4 0.247502,-0.095 0.451822,-0.20718 0.326858,-0.17946 0.49976,-0.20383 1.44099,-0.20437 0.873998,-6.6e-4 1.122454,0.0305 1.359579,0.17062 0.172741,0.10204 0.313285,0.13544 0.347068,0.0822 0.03108,-0.049 0.211911,-0.34137 0.401977,-0.64969 0.517073,-0.83871 1.131111,-1.51817 1.8196,-2.02908 0.0087,-0.19416 0.01845,-0.43439 0.0265,-0.597 -0.76886,0.54947 -1.4519,1.2962 -2.024068,2.22427 -0.201819,0.32741 -0.393941,0.63778 -0.426894,0.68986 -0.03591,0.0565 -0.185076,0.0212 -0.368529,-0.0873 -0.2518,-0.14887 -0.515388,-0.18206 -1.443516,-0.18153 -0.999495,6.6e-4 -1.183481,0.0269 -1.530586,0.21749 -0.216964,0.11913 -0.432306,0.21839 -0.479265,0.22001 -0.1226,0.004 -0.77364,0.40731 -1.083817,0.67115 -0.46776,0.39789 -0.885168,0.86124 -1.262391,1.40004 l -0.368529,0.52589 -0.464132,6.5e-4 c -1.669966,0.002 -3.175921,1.03671 -4.00742996,2.75044 -0.310709,0.64027 -0.349074,0.77805 -0.445829,1.61028 -0.0582,0.50058 -0.08186,1.01808 -0.05238,1.1502 0.186091,0.83416 0.31061,1.1953 0.538274,1.56343 0.54784596,0.88604 1.39684096,1.46675 2.34335896,1.60275 0.479933,0.069 0.528193,0.0985 0.603276,0.37476 0.271787,1.00032 0.581703,1.4952 1.242836,1.98196 0.35539,0.26166 1.285128,0.56911 1.720529,0.56911 0.282388,0 1.298874,-0.36744 1.514191,-0.54735 0.155292,-0.12976 0.520688,-0.0909 0.503884,0.0537 -0.01598,0.13701 0.889564,0.82258 1.283864,0.97201 0.744798,0.28229 0.884215,0.31713 1.281325,0.31928 0.446906,0.002 1.619168,-0.32804 1.985877,-0.56018 0.22557,-0.14277 0.244344,-0.13467 0.543958,0.24537 0.579078,0.73451 1.30774,1.23464 2.117144,1.45273 v 3e-4 c 0.100928,0.0275 0.662483,0.0349 1.247555,0.0165 1.456237,-0.0457 1.998987,-0.27268 3.175417,-1.32698 0.32226,-0.28883 0.61624,-0.52505 0.6528,-0.52505 0.0367,0 0.16623,0.078 0.28839,0.17371 0.18004,0.1411 0.4157,0.17369 1.24441,0.17316 0.89913,-6.6e-4 1.08435,-0.0305 1.54227,-0.24593 1.11118,-0.52293 1.89074,-1.27305 2.41469,-2.32438 0.2801,-0.56208 0.42174,-0.68804 0.94371,-0.83874 0.44077,-0.12728 1.1955,-0.65571 1.60315,-1.12287 0.55318,-0.63393 0.80106,-1.10997 1.02481,-1.96719 0.12457,-0.47696 0.16624,-0.69455 0.16502,-1.02695 -3.2e-4,-0.11084 -0.005,-0.23424 -0.0139,-0.38452 -0.043,-0.76109 -0.1755,-1.20063 -0.54363,-1.80323 -0.48938,-0.80104 -1.44999,-1.43656 -2.17204,-1.43656 -0.35336,0 -0.41597,-0.0336 -0.51461,-0.27521 -0.0618,-0.15128 -0.12504,-0.35841 -0.14136,-0.46037 -0.0884,-0.56057 -0.86814,-1.73745 -1.39491,-2.10604 -0.6978,-0.48825 -1.07823,-0.59832 -2.08716,-0.60368 -0.6464,-0.004 -1.04407,0.0363 -1.16018,0.11715 -0.21679,0.15084 -0.26219,0.0779 -0.49852,-0.8011 -0.19916,-0.74065 -0.45838,-1.22573 -0.99737,-1.86597 -0.36995,-0.43944 -0.54293,-0.58887 -1.20591,-1.04452 -0.17515,-0.12037 -0.39598,-0.22129 -0.64335,-0.30394 z m -1.73915,0.52255 c -0.03888,-3.4e-4 -0.07703,0.002 -0.115788,0.002 0.0691,6.4e-4 0.141943,3.2e-4 0.209187,9.8e-4 -0.03108,-9.8e-4 -0.06229,-0.004 -0.09337,-0.004 z m 1.46307,0.23003 c -0.01932,0.12222 -0.05387,0.31937 -0.09882,0.56686 0.17584,0.065 0.33456,0.14115 0.4635,0.22977 0.57677,0.3964 0.72694,0.52644 1.04879,0.90873 0.4689,0.55699 0.69473,0.97877 0.868,1.6231 0.14903,0.55434 0.21094,0.73942 0.30542,0.7498 -0.15525,0.0921 -0.20347,-0.007 -0.39188,-0.69962 -0.17059,-0.62709 -0.39271,-1.0375 -0.85443,-1.57959 -0.31691,-0.37207 -0.46508,-0.49869 -1.033,-0.88446 -0.15006,-0.10192 -0.339317,-0.18742 -0.551216,-0.25737 -0.06885,0.43151 -0.330932,1.8059 -0.654384,3.42048 -0.386969,1.93152 -0.699981,3.51779 -0.695102,3.52476 0.005,0.007 0.679771,-0.13978 1.499676,-0.32595 0.819896,-0.1862 1.498916,-0.32937 1.508816,-0.31788 0.03,0.0349 -5.170008,7.45665 -5.241115,7.48034 -0.05337,0.0178 -3.536698,-7.38111 -3.524364,-7.48591 0.0012,-0.0166 0.07864,-0.01 0.170389,0.0136 v -2.9e-4 c 0.509085,0.1328 2.694427,0.64676 2.704321,0.63602 0.0062,-0.007 0.06675,-1.59325 0.134104,-3.52474 0.03975,-1.13824 0.08087,-2.11679 0.113931,-2.77415 -0.658632,0.46521 -1.243307,1.09746 -1.73347,1.88324 -0.17289,0.27721 -0.337408,0.54009 -0.365681,0.58417 -0.03071,0.0478 -0.158698,0.018 -0.315836,-0.0739 -0.215701,-0.12602 -0.441767,-0.15408 -1.236843,-0.15362 -0.856215,6.6e-4 -1.01334,0.0227 -1.310675,0.18402 -0.185856,0.10081 -0.370882,0.18436 -0.411117,0.18598 -0.105014,0.004 -0.662557,0.34515 -0.928264,0.56854 -0.400702,0.3369 -0.758147,0.72941 -1.081278,1.18561 l -0.315526,0.44531 -0.11616,2.9e-4 0.303205,-0.43303 c 0.32817,-0.46877 0.691089,-0.87183 1.09802,-1.21795 0.269831,-0.22955 0.836166,-0.58023 0.942766,-0.58417 0.04087,-10e-4 0.228679,-0.0877 0.417432,-0.19129 0.301967,-0.16577 0.461655,-0.18852 1.331183,-0.18904 0.807435,-3.2e-4 1.037031,0.0284 1.256087,0.1578 0.15959,0.0944 0.28936,0.12497 0.320567,0.0759 0.02873,-0.0453 0.195788,-0.31523 0.371365,-0.60005 0.477692,-0.77482 1.044733,-1.40262 1.680789,-1.87462 0.0087,-0.17937 0.01709,-0.40131 0.02464,-0.55154 -0.710297,0.50761 -1.341189,1.19764 -1.869778,2.05503 -0.186463,0.30246 -0.36396,0.58902 -0.394411,0.63713 -0.03319,0.0521 -0.170971,0.0196 -0.340431,-0.0806 -0.232629,-0.13751 -0.47628,-0.16807 -1.333709,-0.16756 -0.923372,6.5e-4 -1.093191,0.0246 -1.413856,0.20075 -0.200432,0.10997 -0.3996,0.20179 -0.442981,0.20327 -0.113188,0.004 -0.714606,0.37639 -1.001155,0.62013 -0.432119,0.36757 -0.817676,0.79547 -1.166156,1.29324 l -0.340443,0.48602 -0.428801,6.6e-4 c -1.542747,0.002 -2.93414,0.95755 -3.702306,2.54075 -0.287044,0.5915 -0.322375,0.71876 -0.411761,1.48759 -0.05374,0.46243 -0.07554,0.94059 -0.0483,1.06265 0.171925,0.77061 0.286945,1.10427 0.497271,1.44437 0.506126,0.81853 1.290366,1.35498 2.164785,1.48061 0.443352,0.0636 0.487835,0.091 0.557209,0.34632 0.251069,0.92412 0.537394,1.38115 1.148175,1.83084 0.328319,0.24172 1.187332,0.52588 1.589583,0.52588 0.260876,0 1.199803,-0.33959 1.398711,-0.50581 0.143454,-0.11987 0.481246,-0.0837 0.465705,0.0499 -0.01474,0.12657 0.821788,0.75981 1.186044,0.89784 0.688068,0.26079 0.816662,0.29303 1.183519,0.29503 0.412888,0.002 1.495961,-0.30308 1.834745,-0.51753 0.208394,-0.13189 0.22583,-0.12438 0.502633,0.22669 0.534954,0.67855 1.208162,1.14054 1.955907,1.34205 v 2.9e-4 c 0.09325,0.0254 0.611747,0.0322 1.152274,0.0151 1.345313,-0.0421 1.846887,-0.25178 2.933707,-1.22578 0.29772,-0.26682 0.5692,-0.48517 0.60297,-0.48517 0.0338,0 0.15376,0.0722 0.26661,0.16062 0.16632,0.13034 0.38386,0.16054 1.14944,0.16005 0.83064,-6.6e-4 1.00185,-0.0281 1.42489,-0.22726 1.02655,-0.4831 1.7467,-1.17607 2.23073,-2.14732 0.25877,-0.51925 0.38958,-0.63566 0.87178,-0.77488 0.40721,-0.11752 1.10445,-0.60568 1.48105,-1.03728 0.51106,-0.5856 0.74016,-1.02552 0.94688,-1.81744 0.11505,-0.44063 0.15352,-0.64152 0.1524,-0.9486 -3.3e-4,-0.10241 -0.005,-0.21642 -0.013,-0.35524 -0.0396,-0.7031 -0.16221,-1.10935 -0.50231,-1.66605 -0.45209,-0.74002 -1.33934,-1.32698 -2.00638,-1.32698 -0.32645,0 -0.38437,-0.0311 -0.47549,-0.2543 -0.0571,-0.13976 -0.11554,-0.33103 -0.13064,-0.42522 -0.0817,-0.51786 -0.80193,-1.6052 -1.28858,-1.9457 -0.64464,-0.45107 -0.99605,-0.55273 -1.92814,-0.55769 -0.59716,-0.004 -0.96455,0.0336 -1.07183,0.10823 -0.20026,0.13936 -0.24233,0.0721 -0.46066,-0.74002 -0.18398,-0.68424 -0.42338,-1.1323 -0.92131,-1.72377 -0.34178,-0.40597 -0.50163,-0.54412 -1.11411,-0.96504 -0.16181,-0.11121 -0.36592,-0.20444 -0.594438,-0.28079 z m 3.7244,3.9235 c 0.87775,0.005 1.20877,0.10056 1.81582,0.52532 0.45829,0.32067 1.13658,1.34457 1.2135,1.83224 0.0142,0.0887 0.069,0.26881 0.12273,0.4004 0.0389,0.0952 0.0724,0.15203 0.12494,0.18712 -0.16336,-0.0151 -0.21551,-0.066 -0.28176,-0.22644 -0.0529,-0.12807 -0.10675,-0.30347 -0.12086,-0.38979 -0.0758,-0.47464 -0.74363,-1.47109 -1.19489,-1.78318 -0.59777,-0.41338 -0.92375,-0.50651 -1.78805,-0.51137 -0.4165,-0.002 -0.71213,0.0165 -0.87557,0.055 0.12386,-0.0616 0.45788,-0.0921 0.9841,-0.0893 z M 5.380847,283.9173 c -1.167209,0.2219 -2.18658,1.03551 -2.790141,2.26499 -0.266177,0.5421 -0.298908,0.65913 -0.38178,1.36379 -0.04966,0.42383 -0.07009,0.86183 -0.04483,0.9737 0.159416,0.70625 0.266263,1.0122 0.461283,1.32389 0.469321,0.7502 1.196522,1.24169 2.00735,1.35683 0.411117,0.0583 0.452182,0.0833 0.516503,0.31732 0.232815,0.84695 0.498522,1.26589 1.064882,1.67803 0.304443,0.22153 1.100795,0.48211 1.473794,0.48211 0.241905,0 1.112659,-0.31136 1.297103,-0.46371 0.133026,-0.10984 0.446039,-0.0768 0.431637,0.0457 -0.01375,0.11604 0.762135,0.69632 1.099903,0.82284 0.638037,0.239 0.757206,0.26803 1.097376,0.27019 0.382858,0.002 1.387455,-0.27775 1.701595,-0.4743 0.193249,-0.12086 0.209372,-0.1138 0.466039,0.20801 0.496045,0.62191 1.120237,1.04556 1.813605,1.23022 0.08644,0.0233 0.56745,0.0296 1.068671,0.0139 1.247469,-0.0386 1.712308,-0.23077 2.720088,-1.12344 0.27607,-0.24454 0.52778,-0.44444 0.55912,-0.44444 0.0313,0 0.14271,0.066 0.24736,0.14693 0.15422,0.1195 0.3556,0.14708 1.0655,0.14666 0.77024,-6.5e-4 0.92913,-0.0259 1.3214,-0.20828 0.95187,-0.44276 1.61973,-1.07789 2.06857,-1.96803 0.23995,-0.47591 0.36091,-0.5826 0.80804,-0.7102 0.37759,-0.10774 1.02425,-0.55526 1.37346,-0.95083 0.47389,-0.53674 0.6864,-0.93998 0.87808,-1.66577 0.10675,-0.40384 0.14258,-0.58768 0.14137,-0.86913 -3.3e-4,-0.0939 -0.005,-0.19843 -0.0124,-0.32568 -0.0368,-0.64439 -0.15035,-1.01668 -0.4657,-1.52689 -0.32327,-0.523 -0.88624,-0.96134 -1.41069,-1.13515 0.57706,0.13014 1.23943,0.61898 1.60316,1.21433 0.32027,0.52424 0.43563,0.9069 0.47296,1.56901 0.007,0.13074 0.0124,0.2382 0.0124,0.3346 10e-4,0.2892 -0.0352,0.47817 -0.14355,0.89313 -0.19467,0.74573 -0.4104,1.15999 -0.89167,1.71149 -0.35464,0.40641 -1.01145,0.86632 -1.39491,0.97703 -0.45409,0.13111 -0.57699,0.24073 -0.82067,0.72971 -0.45581,0.91462 -1.13407,1.5672 -2.10074,2.02212 -0.39838,0.18747 -0.55969,0.21328 -1.3419,0.21388 -0.72094,3.2e-4 -0.92562,-0.0279 -1.08224,-0.15058 -0.10625,-0.0832 -0.21931,-0.15113 -0.25116,-0.15113 -0.0318,0 -0.28725,0.20547 -0.56762,0.45673 -1.02346,0.91721 -1.495814,1.11469 -2.762688,1.15439 -0.509023,0.0161 -0.997303,0.01 -1.085079,-0.0142 v -2.9e-4 c -0.704155,-0.18974 -1.338229,-0.62496 -1.842002,-1.26396 -0.260654,-0.33062 -0.277037,-0.33779 -0.473283,-0.21358 -0.319031,0.20194 -1.339294,0.48971 -1.728108,0.4874 -0.345458,-10e-4 -0.46646,-0.0322 -1.114417,-0.27772 -0.343019,-0.13001 -1.130801,-0.72624 -1.116943,-0.84543 0.01461,-0.12584 -0.303168,-0.16004 -0.438262,-0.0471 -0.187318,0.15653 -1.071631,0.47653 -1.317289,0.47653 -0.378795,0 -1.187654,-0.26786 -1.496828,-0.49549 -0.575177,-0.42346 -0.844859,-0.85379 -1.08129,-1.72405 -0.06539,-0.24035 -0.107244,-0.26598 -0.524713,-0.32595 -0.823436,-0.11826 -1.561967,-0.62336 -2.03857,-1.39418 -0.198066,-0.32027 -0.306337,-0.63475 -0.468231,-1.36044 -0.02563,-0.11493 -0.005,-0.56499 0.04545,-1.00047 0.08421,-0.72401 0.117522,-0.84414 0.387773,-1.40115 0.638682,-1.31632 1.735068,-2.17012 2.98292,-2.35393 z"
       id="rect1303-7-9-9-3-4"
       inkscape:connector-curvature="0" />
  </g>
</svg>
